<?xml version="1.0" encoding="iso-8859-1"?>
<!-- Generator: Adobe Illustrator 19.0.0, SVG Export Plug-In . SVG Version: 6.00 Build 0)  -->
<svg version="1.1" id="Layer_1" xmlns="http://www.w3.org/2000/svg" xmlns:xlink="http://www.w3.org/1999/xlink" x="0px" y="0px"
	 viewBox="0 0 512 512" style="enable-background:new 0 0 512 512;" xml:space="preserve">
<g>
	<path style="fill:#F7CD95;" d="M150.579,83.814c0,12.678-10.269,22.947-22.947,22.947c-12.667,0-22.947-10.269-22.947-22.947
		H29.543l12.174,68.842l85.915,22.947l85.915-22.947l12.185-68.842C225.732,83.814,150.579,83.814,150.579,83.814z"/>
	<path style="fill:#F7CD95;" d="M509.591,86.247c6.666,16.109-0.975,34.559-17.073,41.225
		c-7.297,3.029-150.65,54.179-163.374,58.137c-3.155,7.205-8.984,13.264-16.832,16.511c-10.235,4.234-21.41,2.685-29.912-3.132
		l-56.508,23.406l-18.881-13.197l12.731-21.511l49.486-20.503c1.893-10.12,8.697-19.127,18.932-23.36
		c7.848-3.259,16.247-3.098,23.578-0.229c11.795-6.196,149.342-71.401,156.627-74.418C484.464,62.508,502.925,70.149,509.591,86.247
		z"/>
</g>
<path style="fill:#FF9A52;" d="M254.324,383.094l-40.778-230.438H41.717L0.951,383.094c-6.047,34.18,17.394,62.142,52.102,62.142
	h149.158C236.919,445.236,260.371,417.274,254.324,383.094z"/>
<g>
	<circle style="fill:#F7CD95;" cx="93.499" cy="393.032" r="8.605"/>
	<circle style="fill:#F7CD95;" cx="59.077" cy="358.61" r="8.605"/>
</g>
<g>
</g>
<g>
</g>
<g>
</g>
<g>
</g>
<g>
</g>
<g>
</g>
<g>
</g>
<g>
</g>
<g>
</g>
<g>
</g>
<g>
</g>
<g>
</g>
<g>
</g>
<g>
</g>
<g>
</g>
</svg>
