<?xml version="1.0" encoding="iso-8859-1"?>
<!-- Generator: Adobe Illustrator 19.0.0, SVG Export Plug-In . SVG Version: 6.00 Build 0)  -->
<svg version="1.1" id="Layer_1" xmlns="http://www.w3.org/2000/svg" xmlns:xlink="http://www.w3.org/1999/xlink" x="0px" y="0px"
	 viewBox="0 0 512 512" style="enable-background:new 0 0 512 512;" xml:space="preserve">
<path style="fill:#F9EBDB;" d="M492.627,462.878l-6.509,22.783c-2.513,8.779-12.033,15.963-21.166,15.963H66.422
	c-9.133,0-18.653-7.185-21.166-15.963l-6.509-22.783H492.627z"/>
<path style="fill:#E8D6BD;" d="M18.133,179.203C6.731,194.845,0,214.085,0,234.886c0,52.241,42.499,94.75,94.75,94.75h7.65v66.82
	c0,18.266,14.945,33.211,33.211,33.211h260.151c18.266,0,33.211-14.945,33.211-33.211V179.203h-35.978l-8.303,11.07l-8.303-11.07
	L18.133,179.203L18.133,179.203z M102.4,296.426h-7.65c-33.93,0-61.54-27.609-61.54-61.54c0-7.793,1.45-15.388,4.24-22.473H102.4
	V296.426z"/>
<g>
	<path style="fill:#FFFFFF;" d="M384.692,393.689c-4.586,0-8.303-3.717-8.303-8.303V256.69c0-4.585,3.716-8.303,8.303-8.303
		s8.303,3.717,8.303,8.303v128.696C392.995,389.972,389.278,393.689,384.692,393.689z"/>
	<path style="fill:#FFFFFF;" d="M376.389,179.203v44.277c0,4.585,3.716,8.303,8.303,8.303s8.303-3.717,8.303-8.303v-44.277H376.389z
		"/>
</g>
<g>
	<path style="fill:#F9EBDB;" d="M226.941,154.29c-4.586,0-8.303-3.717-8.303-8.303c0-12.644,3.441-19.239,6.477-25.058
		c2.566-4.917,4.593-8.803,4.593-17.375c0-8.574-2.027-12.46-4.593-17.379c-3.035-5.819-6.477-12.414-6.477-25.06
		s3.441-19.24,6.477-25.06c2.566-4.919,4.593-8.804,4.593-17.378c0-4.585,3.716-8.303,8.303-8.303c4.586,0,8.303,3.717,8.303,8.303
		c0,12.644-3.441,19.24-6.477,25.06c-2.566,4.919-4.593,8.804-4.593,17.378s2.027,12.46,4.593,17.378
		c3.035,5.819,6.477,12.414,6.477,25.06c0,12.643-3.441,19.238-6.477,25.056c-2.566,4.919-4.593,8.803-4.593,17.376
		C235.243,150.573,231.527,154.29,226.941,154.29z"/>
	<path style="fill:#F9EBDB;" d="M293.362,154.29c-4.586,0-8.303-3.717-8.303-8.303c0-12.644,3.441-19.239,6.477-25.058
		c2.566-4.917,4.593-8.803,4.593-17.375c0-8.574-2.027-12.46-4.593-17.379c-3.035-5.819-6.477-12.414-6.477-25.06
		s3.441-19.24,6.477-25.06c2.566-4.919,4.593-8.804,4.593-17.378c0-4.585,3.716-8.303,8.303-8.303s8.303,3.717,8.303,8.303
		c0,12.644-3.441,19.24-6.477,25.06c-2.566,4.919-4.593,8.804-4.593,17.378s2.027,12.46,4.593,17.378
		c3.035,5.819,6.477,12.414,6.477,25.06c0,12.643-3.441,19.238-6.477,25.056c-2.566,4.919-4.593,8.803-4.593,17.376
		C301.665,150.573,297.949,154.29,293.362,154.29z"/>
</g>
<path style="fill:#E8D6BD;" d="M503.697,471.181H27.676c-4.586,0-8.303-3.717-8.303-8.303c0-4.585,3.716-8.303,8.303-8.303h476.022
	c4.586,0,8.303,3.717,8.303,8.303C512,467.464,508.284,471.181,503.697,471.181z"/>
<g>
</g>
<g>
</g>
<g>
</g>
<g>
</g>
<g>
</g>
<g>
</g>
<g>
</g>
<g>
</g>
<g>
</g>
<g>
</g>
<g>
</g>
<g>
</g>
<g>
</g>
<g>
</g>
<g>
</g>
</svg>
