<?xml version="1.0" encoding="iso-8859-1"?>
<!-- Generator: Adobe Illustrator 19.0.0, SVG Export Plug-In . SVG Version: 6.00 Build 0)  -->
<svg version="1.1" id="Layer_1" xmlns="http://www.w3.org/2000/svg" xmlns:xlink="http://www.w3.org/1999/xlink" x="0px" y="0px"
	 viewBox="0 0 512 512" style="enable-background:new 0 0 512 512;" xml:space="preserve">
<path style="fill:#F9EBDB;" d="M492.627,469.028l-6.509,22.783c-2.513,8.779-12.033,15.963-21.166,15.963H66.422
	c-9.133,0-18.653-7.185-21.166-15.963l-6.509-22.783H492.627z"/>
<path style="fill:#E8D6BD;" d="M503.697,477.33H27.676c-4.586,0-8.303-3.716-8.303-8.303c0-4.586,3.716-8.303,8.303-8.303h476.022
	c4.586,0,8.303,3.716,8.303,8.303C512,473.614,508.284,477.33,503.697,477.33z"/>
<path style="fill:#C8FEFF;" d="M442.811,174.171v88.562c0,97.828-79.307,177.124-177.124,177.124
	c-50.658,0-96.333-21.266-128.614-55.351h-48.51c-23.657,0-45.897-9.21-62.625-25.938C9.21,341.841,0,319.601,0,295.944
	s9.21-45.897,25.938-62.625s38.967-25.938,62.625-25.938v-33.211H442.811z M88.562,351.295h23.701
	c-15.078-26.048-23.701-56.303-23.701-88.562v-22.141c-14.79,0-28.683,5.757-39.144,16.207
	c-10.45,10.461-16.207,24.355-16.207,39.144s5.757,28.683,16.218,39.145C59.879,345.539,73.772,351.295,88.562,351.295z"/>
<path style="fill:#B75548;" d="M209.405,16.309l71.287,35.862l41.287,76.711c-21.421,21.421-63.997,13.583-95.083-17.502
	S187.973,37.73,209.405,16.309z"/>
<g>
	<path style="fill:#8E4238;" d="M409.6,207.382v55.351c0,79.352-64.562,143.914-143.914,143.914s-143.914-64.562-143.914-143.914
		v-55.351c35.978,0,35.978,15.498,71.957,15.498s35.978-15.498,71.946-15.498c35.989,0,35.989,15.498,71.968,15.498
		S373.622,207.382,409.6,207.382z"/>
	<path style="fill:#8E4238;" d="M304.477,33.811c31.085,31.085,38.923,73.651,17.502,95.071L209.405,16.309
		C230.826-5.123,273.38,2.715,304.477,33.811z"/>
</g>
<g>
</g>
<g>
</g>
<g>
</g>
<g>
</g>
<g>
</g>
<g>
</g>
<g>
</g>
<g>
</g>
<g>
</g>
<g>
</g>
<g>
</g>
<g>
</g>
<g>
</g>
<g>
</g>
<g>
</g>
</svg>
