<?xml version="1.0" encoding="iso-8859-1"?>
<!-- Generator: Adobe Illustrator 19.0.0, SVG Export Plug-In . SVG Version: 6.00 Build 0)  -->
<svg version="1.1" id="Layer_1" xmlns="http://www.w3.org/2000/svg" xmlns:xlink="http://www.w3.org/1999/xlink" x="0px" y="0px"
	 viewBox="0 0 512 512" style="enable-background:new 0 0 512 512;" xml:space="preserve">
<polygon style="fill:#C8FEFF;" points="495.121,65.84 495.121,433.231 169.489,444.484 169.489,65.84 "/>
<polygon style="fill:#51C0C2;" points="495.121,433.231 495.121,512 191.994,512 169.489,433.231 "/>
<polygon style="fill:#98E1E2;" points="16.879,221.6 16.879,512 191.994,512 191.994,221.6 104.437,199.095 "/>
<rect x="16.879" y="65.84" style="fill:#51C0C2;" width="175.115" height="155.761"/>
<g>
	<path style="fill:#B75548;" d="M384,78.769l63.994-11.253L512,78.769c0,16.688-6.392,31.913-16.89,43.323
		c-11.68,12.749-28.458,20.739-47.115,20.739C412.65,142.831,384,114.114,384,78.769z"/>
	<path style="fill:#B75548;" d="M128,78.769l64-11.253l64,11.253c0,35.345-28.649,64.062-64.006,64.062
		C156.65,142.831,128,114.114,128,78.769z"/>
</g>
<g>
	<path style="fill:#DC774E;" d="M256,78.769l64.006-11.253L384,78.769c0,35.345-28.65,64.062-63.994,64.062
		C284.65,142.831,256,114.114,256,78.769z"/>
	<path style="fill:#DC774E;" d="M0,78.769l64-11.253l64,11.253c0,35.345-28.649,64.062-63.994,64.062
		c-18.657,0-35.435-7.989-47.115-20.739C6.392,110.682,0,95.457,0,78.769z"/>
</g>
<path style="fill:#98E1E2;" d="M432.511,235.982c-1.509-2.607-4.293-4.213-7.305-4.213H257.398c-4.661,0-8.44,3.779-8.44,8.44
	v28.132c0,41.883,34.073,75.956,75.956,75.956c30.867,0,57.494-18.509,69.363-45.01h1.688c23.268,0,42.198-18.929,42.198-42.198
	C438.163,249.671,436.208,242.373,432.511,235.982z M399.613,282.147c0.826-4.479,1.257-9.092,1.257-13.806v-19.692h18.97
	c0.951,2.695,1.443,5.552,1.443,8.441C421.284,269.812,411.851,280.372,399.613,282.147z"/>
<polygon style="fill:#FF9A52;" points="495.121,0 16.879,0 0,78.769 512,78.769 "/>
<g>
</g>
<g>
</g>
<g>
</g>
<g>
</g>
<g>
</g>
<g>
</g>
<g>
</g>
<g>
</g>
<g>
</g>
<g>
</g>
<g>
</g>
<g>
</g>
<g>
</g>
<g>
</g>
<g>
</g>
</svg>
