<?xml version="1.0" encoding="iso-8859-1"?>
<!-- Generator: Adobe Illustrator 19.0.0, SVG Export Plug-In . SVG Version: 6.00 Build 0)  -->
<svg version="1.1" id="Layer_1" xmlns="http://www.w3.org/2000/svg" xmlns:xlink="http://www.w3.org/1999/xlink" x="0px" y="0px"
	 viewBox="0 0 512 512" style="enable-background:new 0 0 512 512;" xml:space="preserve">
<rect x="106.901" y="466.989" style="fill:#D2BA9C;" width="45.011" height="45.011"/>
<rect x="450.11" y="466.989" style="fill:#BD9F79;" width="45.011" height="45.011"/>
<g>
	<rect x="112.527" y="160.352" style="fill:#98E1E2;" width="56.264" height="16.879"/>
	<path style="fill:#98E1E2;" d="M202.549,163.165v45.011c0,4.661,3.779,8.44,8.44,8.44c4.661,0,8.44-3.779,8.44-8.44v-45.011
		H202.549z"/>
</g>
<polygon style="fill:#296B94;" points="0,143.473 0,194.11 123.78,185.67 123.78,151.912 "/>
<path style="fill:#74D1D2;" d="M157.538,106.901v61.89c0,9.284,7.596,16.879,16.879,16.879h73.143
	c9.284,0,16.879-7.596,16.879-16.879v-61.89H157.538z"/>
<path style="fill:#BD9F79;" d="M123.78,393.846c-18.567,0-33.758,15.191-33.758,33.758v50.637h241.934l22.505-84.396H123.78z"/>
<path style="fill:#D2BA9C;" d="M90.022,0v84.396c0,18.567,15.191,33.758,33.758,33.758h208.176v360.088H512V0H90.022z"/>
<path style="fill:#F9EBDB;" d="M421.978,33.758c23.304,0,42.198,18.893,42.198,42.198s-18.893,42.198-42.198,42.198
	c-20.391,0-37.405-14.465-41.34-33.694l10.395-8.504l-10.409-8.44C384.535,48.256,401.564,33.758,421.978,33.758z"/>
<g>
	<path style="fill:#BD9F79;" d="M430.418,67.516h-49.791c-0.554,2.727-0.846,5.549-0.846,8.44s0.293,5.713,0.846,8.44h49.791
		c4.661,0,8.44-3.779,8.44-8.44S435.078,67.516,430.418,67.516z"/>
	<circle style="fill:#BD9F79;" cx="388.22" cy="393.846" r="8.44"/>
	<circle style="fill:#BD9F79;" cx="388.22" cy="343.209" r="8.44"/>
	<circle style="fill:#BD9F79;" cx="388.22" cy="292.571" r="8.44"/>
</g>
<path style="fill:#E8D6BD;" d="M278.505,256H110.698c-3.012,0-5.796,1.606-7.305,4.213c-3.698,6.39-5.651,13.689-5.651,21.107
	c0,23.268,18.929,42.198,42.198,42.198h1.687c11.869,26.501,38.496,45.01,69.363,45.01c41.883,0,75.956-34.073,75.956-75.956V264.44
	C286.945,259.779,283.166,256,278.505,256z M114.62,281.32c0-2.89,0.493-5.746,1.443-8.441h18.97v19.692
	c0,4.714,0.431,9.327,1.257,13.806C124.053,304.603,114.62,294.042,114.62,281.32z"/>
<g>
</g>
<g>
</g>
<g>
</g>
<g>
</g>
<g>
</g>
<g>
</g>
<g>
</g>
<g>
</g>
<g>
</g>
<g>
</g>
<g>
</g>
<g>
</g>
<g>
</g>
<g>
</g>
<g>
</g>
</svg>
