<?xml version="1.0" encoding="iso-8859-1"?>
<!-- Generator: Adobe Illustrator 19.0.0, SVG Export Plug-In . SVG Version: 6.00 Build 0)  -->
<svg version="1.1" id="Layer_1" xmlns="http://www.w3.org/2000/svg" xmlns:xlink="http://www.w3.org/1999/xlink" x="0px" y="0px"
	 viewBox="0 0 512 512" style="enable-background:new 0 0 512 512;" xml:space="preserve">
<polygon style="fill:#BD9F79;" points="228.082,139.039 224.042,186.863 119.56,209.369 15.079,186.863 11.039,139.039 
	119.56,116.533 "/>
<polygon style="fill:#E8D6BD;" points="206.015,61.136 217.043,105.281 119.56,127.786 22.078,105.281 33.106,61.136 "/>
<g>
	<rect y="105.281" style="fill:#F9EBDB;" width="239.121" height="33.758"/>
	<path style="fill:#F9EBDB;" d="M224.042,186.863l-13.987,165.539l-90.495,22.505l-90.495-22.505L15.079,186.863H224.042z"/>
</g>
<path style="fill:#B75548;" d="M78.218,228.296l57.254,25.42l25.431,57.254c-15.731,15.731-46.991,9.981-69.835-12.851
	C68.237,275.287,62.487,244.027,78.218,228.296z"/>
<path style="fill:#8E4238;" d="M148.041,241.146c22.843,22.832,28.593,54.092,12.862,69.823l-82.685-82.674
	C93.949,212.564,125.221,218.315,148.041,241.146z"/>
<polygon style="fill:#BD9F79;" points="500.961,139.039 496.921,186.863 392.44,209.369 287.958,186.863 283.918,139.039 
	392.44,116.533 "/>
<polygon style="fill:#E8D6BD;" points="478.894,61.136 489.922,105.281 392.44,127.786 294.957,105.281 305.985,61.136 "/>
<g>
	<rect x="272.879" y="105.281" style="fill:#F9EBDB;" width="239.121" height="33.758"/>
	<path style="fill:#F9EBDB;" d="M496.921,186.863l-13.987,165.539l-90.495,22.505l-90.495-22.505l-13.987-165.539H496.921z"/>
</g>
<path style="fill:#B75548;" d="M351.097,228.296l57.254,25.42l25.431,57.254c-15.731,15.731-46.991,9.981-69.835-12.851
	C341.116,275.287,335.366,244.027,351.097,228.296z"/>
<path style="fill:#8E4238;" d="M420.92,241.146c22.843,22.832,28.593,54.092,12.862,69.823l-82.685-82.674
	C366.828,212.564,398.1,218.315,420.92,241.146z"/>
<g>
	<path style="fill:#74D1D2;" d="M215.738,386.161l-4.04,47.892c-0.788,9.25-9.025,16.812-18.308,16.812H45.731
		c-9.284,0-17.521-7.562-18.308-16.812l-4.04-47.892l96.177-22.505L215.738,386.161z"/>
	<path style="fill:#74D1D2;" d="M488.617,386.161l-4.04,47.892c-0.788,9.25-9.025,16.812-18.308,16.812H318.61
		c-9.284,0-17.521-7.562-18.308-16.812l-4.04-47.892l96.177-22.505L488.617,386.161z"/>
</g>
<rect y="352.402" style="fill:#98E1E2;" width="512" height="33.758"/>
<g>
</g>
<g>
</g>
<g>
</g>
<g>
</g>
<g>
</g>
<g>
</g>
<g>
</g>
<g>
</g>
<g>
</g>
<g>
</g>
<g>
</g>
<g>
</g>
<g>
</g>
<g>
</g>
<g>
</g>
</svg>
