<?xml version="1.0" encoding="iso-8859-1"?>
<!-- Generator: Adobe Illustrator 19.0.0, SVG Export Plug-In . SVG Version: 6.00 Build 0)  -->
<svg version="1.1" id="Layer_1" xmlns="http://www.w3.org/2000/svg" xmlns:xlink="http://www.w3.org/1999/xlink" x="0px" y="0px"
	 viewBox="0 0 512 512" style="enable-background:new 0 0 512 512;" xml:space="preserve">
<path style="fill:#F9EBDB;" d="M385.339,33.758l-87.996,45.011l-87.996-45.011C209.346,15.112,224.459,0,243.104,0
	c11.106,0,20.964,5.368,27.119,13.65C276.367,5.368,286.225,0,297.343,0c11.106,0,20.964,5.368,27.119,13.65
	C330.606,5.368,340.463,0,351.57,0C370.215,0,385.328,15.112,385.339,33.758z"/>
<path style="fill:#C8FEFF;" d="M419.345,33.758l-26.118,253.513c-3.376,32.768-32.239,59.763-64.94,61.474l-61.89,0.09
	c-33.094-1.294-62.396-28.492-65.705-61.586h-18.016c-24.047,0-46.654-9.362-63.657-26.365s-26.365-39.61-26.365-63.657
	s9.362-46.654,26.365-63.657s39.61-26.365,63.657-26.365l-7.348-73.447h34.017l87.996,123.78l87.996-123.78H419.345z
	 M197.306,253.491l-11.253-112.527h-3.376c-15.022,0-29.156,5.851-39.778,16.485c-10.634,10.623-16.485,24.756-16.485,39.778
	c0,15.034,5.851,29.156,16.485,39.79c10.623,10.623,24.756,16.474,39.778,16.474L197.306,253.491L197.306,253.491z"/>
<path style="fill:#74D1D2;" d="M390.752,481.798c0,0-62.464-16.8-62.464-42.94v-90.112l-61.89,0.09v90.022
	c0,26.14-62.475,42.94-62.475,42.94c-8.968,2.419-16.294,11.984-16.294,21.268V512h219.429v-8.935
	C407.057,493.782,399.72,484.217,390.752,481.798z"/>
<path style="fill:#98E1E2;" d="M328.288,382.593h-61.89c-9.329,0-16.879,7.562-16.879,16.879c0,9.317,7.551,16.879,16.879,16.879
	h61.89c9.317,0,16.879-7.562,16.879-16.879C345.167,390.155,337.605,382.593,328.288,382.593z"/>
<path style="fill:#B75548;" d="M385.339,33.758l-25.69,250.047c-1.71,16.665-17.903,31.271-34.647,31.271h-56.264
	c-16.699,0-32.802-14.572-34.456-31.181L209.346,33.758H385.339z"/>
<g>
</g>
<g>
</g>
<g>
</g>
<g>
</g>
<g>
</g>
<g>
</g>
<g>
</g>
<g>
</g>
<g>
</g>
<g>
</g>
<g>
</g>
<g>
</g>
<g>
</g>
<g>
</g>
<g>
</g>
</svg>
