<?xml version="1.0" encoding="iso-8859-1"?>
<!-- Generator: Adobe Illustrator 19.0.0, SVG Export Plug-In . SVG Version: 6.00 Build 0)  -->
<svg version="1.1" id="Layer_1" xmlns="http://www.w3.org/2000/svg" xmlns:xlink="http://www.w3.org/1999/xlink" x="0px" y="0px"
	 viewBox="0 0 512 512" style="enable-background:new 0 0 512 512;" xml:space="preserve">
<path style="fill:#F9EBDB;" d="M492.936,448.681l-6.405,22.419c-2.473,8.639-11.841,15.709-20.829,15.709H46.298
	c-8.987,0-18.356-7.07-20.829-15.709l-6.405-22.419H492.936z"/>
<g>
	<path style="fill:#E8D6BD;" d="M359.718,202.213l8.166-10.894h35.409c0,68.042-54.468,123.958-54.468,192
		c0,18.051-14.641,32.681-32.681,32.681h-119.83c-18.051,0-32.681-14.63-32.681-32.681c0-26.308-8.148-50.808-18.138-74.894h-20.317
		c-55.568,0-100.766-45.209-100.766-100.766v-16.34h327.131L359.718,202.213z M125.179,275.745h6.155
		c-7.321-16.972-14.14-34.053-18.236-51.745H59.076C66.407,253.674,93.271,275.745,125.179,275.745z"/>
	<path style="fill:#E8D6BD;" d="M503.83,456.851H8.17c-4.513,0-8.17-3.658-8.17-8.17c0-4.512,3.657-8.17,8.17-8.17h495.66
		c4.513,0,8.17,3.658,8.17,8.17C512,453.193,508.343,456.851,503.83,456.851z"/>
</g>
<g>
	<path style="fill:#FFFFFF;" d="M351.544,191.319c0,13.307-2.243,27.235-6.858,42.585c-1.299,4.321,1.151,8.877,5.472,10.177
		c0.784,0.235,1.576,0.348,2.355,0.348c3.513,0,6.757-2.283,7.822-5.82c5.08-16.898,7.549-32.366,7.549-47.289L351.544,191.319
		L351.544,191.319z"/>
	<path style="fill:#FFFFFF;" d="M305.713,380.596c-0.228,0-0.456-0.01-0.686-0.028c-4.497-0.374-7.839-4.322-7.466-8.818
		c2.59-31.162,15.223-59.912,27.439-87.715c2.632-5.988,5.352-12.181,7.912-18.265c1.749-4.159,6.538-6.113,10.699-4.363
		c4.159,1.75,6.112,6.539,4.363,10.699c-2.609,6.203-5.356,12.456-8.012,18.503c-12.214,27.797-23.75,54.053-26.114,82.495
		C313.49,377.368,309.918,380.596,305.713,380.596z"/>
</g>
<g>
	<path style="fill:#F9EBDB;" d="M217.872,166.809c-4.513,0-8.17-3.658-8.17-8.17c0-12.442,3.386-18.932,6.374-24.657
		c2.525-4.84,4.52-8.663,4.52-17.099c0-8.437-1.995-12.261-4.52-17.101c-2.987-5.726-6.374-12.216-6.374-24.66
		s3.386-18.933,6.374-24.66c2.525-4.84,4.52-8.664,4.52-17.101c0-4.512,3.657-8.17,8.17-8.17s8.17,3.658,8.17,8.17
		c0,12.443-3.386,18.933-6.374,24.66c-2.525,4.84-4.52,8.664-4.52,17.101s1.995,12.261,4.52,17.101
		c2.987,5.726,6.374,12.216,6.374,24.66c0,12.442-3.386,18.932-6.374,24.657c-2.525,4.84-4.52,8.663-4.52,17.099
		C226.043,163.15,222.386,166.809,217.872,166.809z"/>
	<path style="fill:#F9EBDB;" d="M283.234,166.809c-4.513,0-8.17-3.658-8.17-8.17c0-12.442,3.386-18.932,6.374-24.657
		c2.525-4.84,4.52-8.663,4.52-17.099c0-8.437-1.995-12.261-4.52-17.101c-2.987-5.726-6.374-12.216-6.374-24.66
		s3.386-18.933,6.374-24.66c2.525-4.84,4.52-8.664,4.52-17.101c0-4.512,3.657-8.17,8.17-8.17c4.513,0,8.17,3.658,8.17,8.17
		c0,12.443-3.386,18.933-6.374,24.66c-2.525,4.84-4.52,8.664-4.52,17.101s1.995,12.261,4.52,17.101
		c2.987,5.726,6.374,12.216,6.374,24.66c0,12.442-3.386,18.932-6.374,24.657c-2.525,4.84-4.52,8.663-4.52,17.099
		C291.404,163.15,287.747,166.809,283.234,166.809z"/>
</g>
<g>
</g>
<g>
</g>
<g>
</g>
<g>
</g>
<g>
</g>
<g>
</g>
<g>
</g>
<g>
</g>
<g>
</g>
<g>
</g>
<g>
</g>
<g>
</g>
<g>
</g>
<g>
</g>
<g>
</g>
</svg>
