<?xml version="1.0" encoding="iso-8859-1"?>
<!-- Generator: Adobe Illustrator 19.0.0, SVG Export Plug-In . SVG Version: 6.00 Build 0)  -->
<svg version="1.1" id="Layer_1" xmlns="http://www.w3.org/2000/svg" xmlns:xlink="http://www.w3.org/1999/xlink" x="0px" y="0px"
	 viewBox="0 0 512 512" style="enable-background:new 0 0 512 512;" xml:space="preserve">
<path style="fill:#74D1D2;" d="M279.811,417.662h-63.166L22.832,239.966c-28.653-26.257-30.603-70.929-4.348-99.583
	c26.258-28.652,70.929-30.601,99.583-4.347l8.636,7.914c4.1,3.758,4.377,10.127,0.62,14.227c-3.756,4.101-10.125,4.378-14.227,0.62
	l-8.636-7.916c-20.464-18.751-52.374-17.361-71.129,3.108c-18.754,20.465-17.36,52.376,3.105,71.129l188.148,172.404h55.227
	c5.561,0,10.069,4.507,10.069,10.069S285.372,417.662,279.811,417.662z"/>
<rect x="216.643" y="390.255" style="fill:#296B94;" width="228.229" height="53.701"/>
<path style="fill:#C8FEFF;" d="M149.519,68.044H512c0,118.37-67.126,203.835-67.126,322.205H216.645
	C216.645,271.879,149.519,186.414,149.519,68.044z"/>
<path style="fill:#8E4238;" d="M456.111,161.095c-5.115,18.5-9.747,36.664-15.936,55.46c-13.788,41.887-27.965,84.901-33.335,133.42
	H254.666c-5.37-48.519-19.534-91.533-33.335-133.42c-6.189-18.795-10.807-36.96-15.936-55.46
	c30.207,9.586,30.274,18.58,61.971,18.58c31.684,0,31.684-18.795,63.38-18.795s31.697,18.795,63.394,18.795
	C425.837,179.675,425.904,170.68,456.111,161.095z"/>
<g>
</g>
<g>
</g>
<g>
</g>
<g>
</g>
<g>
</g>
<g>
</g>
<g>
</g>
<g>
</g>
<g>
</g>
<g>
</g>
<g>
</g>
<g>
</g>
<g>
</g>
<g>
</g>
<g>
</g>
</svg>
