<?xml version="1.0" encoding="iso-8859-1"?>
<!-- Generator: Adobe Illustrator 19.0.0, SVG Export Plug-In . SVG Version: 6.00 Build 0)  -->
<svg version="1.1" id="Layer_1" xmlns="http://www.w3.org/2000/svg" xmlns:xlink="http://www.w3.org/1999/xlink" x="0px" y="0px"
	 viewBox="0 0 512 512" style="enable-background:new 0 0 512 512;" xml:space="preserve">
<path style="fill:#F9EBDB;" d="M412.368,159.157l-146.681,33.211l-146.681-33.211c0-39.499,32.015-71.525,71.525-71.525
	c1.694,0,3.365,0.077,5.037,0.199c6.554-32.746,35.447-57.41,70.119-57.41s63.565,24.665,70.119,57.41
	c1.672-0.122,3.343-0.199,5.037-0.199C380.352,87.632,412.368,119.659,412.368,159.157z"/>
<g>
	<path style="fill:#F7CD95;" d="M492.627,442.833l-6.509,22.783c-2.513,8.779-12.033,15.963-21.166,15.963H66.422
		c-9.133,0-18.653-7.185-21.166-15.963l-6.509-22.783H492.627z"/>
	<path style="fill:#F7CD95;" d="M392.995,159.157l-8.303,11.07l-8.303-11.07H18.133C6.731,174.8,0,194.04,0,214.841
		c0,52.241,42.499,94.75,94.75,94.75h20.358c24.709,58.761,82.828,100.031,150.578,100.031c90.178,0,163.286-73.108,163.286-163.286
		v-87.178L392.995,159.157L392.995,159.157z M94.75,276.38c-33.93,0-61.54-27.609-61.54-61.54c0-7.793,1.45-15.388,4.24-22.473
		H102.4v53.968c0,10.262,0.952,20.303,2.768,30.045H94.75z"/>
</g>
<g>
	<path style="fill:#FFFFFF;" d="M265.686,373.644c-4.586,0-8.303-3.717-8.303-8.303s3.716-8.303,8.303-8.303
		c61.043,0,110.703-49.661,110.703-110.703v-9.691c0-4.585,3.716-8.303,8.303-8.303s8.303,3.717,8.303,8.303v9.691
		C392.995,316.533,335.884,373.644,265.686,373.644z"/>
	<path style="fill:#FFFFFF;" d="M376.389,159.153v44.281c0,4.585,3.716,8.303,8.303,8.303s8.303-3.717,8.303-8.303v-44.281H376.389z
		"/>
</g>
<path style="fill:#FC9851;" d="M503.697,451.136H27.676c-4.585,0-8.303-3.717-8.303-8.303s3.717-8.303,8.303-8.303h476.022
	c4.586,0,8.303,3.717,8.303,8.303S508.284,451.136,503.697,451.136z"/>
<g>
</g>
<g>
</g>
<g>
</g>
<g>
</g>
<g>
</g>
<g>
</g>
<g>
</g>
<g>
</g>
<g>
</g>
<g>
</g>
<g>
</g>
<g>
</g>
<g>
</g>
<g>
</g>
<g>
</g>
</svg>
