<?xml version="1.0" encoding="iso-8859-1"?>
<!-- Generator: Adobe Illustrator 19.0.0, SVG Export Plug-In . SVG Version: 6.00 Build 0)  -->
<svg version="1.1" id="Layer_1" xmlns="http://www.w3.org/2000/svg" xmlns:xlink="http://www.w3.org/1999/xlink" x="0px" y="0px"
	 viewBox="0 0 512 512" style="enable-background:new 0 0 512 512;" xml:space="preserve">
<path style="fill:#C8FEFF;" d="M399.315,144.699v-37.956h-286.63v37.956c-14.797,0-26.793,11.995-26.793,26.793v313.715
	c0,14.797,11.995,26.793,26.793,26.793h286.63c14.797,0,26.793-11.995,26.793-26.793V171.492
	C426.108,156.695,414.112,144.699,399.315,144.699z M256,436.472c-59.763,0-108.218-48.443-108.218-108.218
	c0-59.763,48.454-108.218,108.218-108.218s108.218,48.454,108.218,108.218C364.218,388.028,315.763,436.472,256,436.472z"/>
<path style="fill:#51C0C2;" d="M304.803,16.902v11.23c0,9.34-7.562,16.902-16.902,16.902h-60.574
	c-9.329,0-16.902-7.562-16.902-16.902v-11.23c0-9.34,7.573-16.902,16.902-16.902h60.574C297.241,0,304.803,7.562,304.803,16.902z"/>
<path style="fill:#3C95AB;" d="M366.705,45.033H145.295c-18.016,0-32.61,14.606-32.61,32.61v29.1h286.63v-29.1
	C399.315,59.64,384.72,45.033,366.705,45.033z"/>
<path style="fill:#FF9A52;" d="M256,220.036c59.763,0,108.218,48.454,108.218,108.218c0,59.775-48.454,108.218-108.218,108.218
	s-108.218-48.443-108.218-108.218C147.782,268.491,196.237,220.036,256,220.036z"/>
<g>
	<circle style="fill:#700D00;" cx="256" cy="397.087" r="8.44"/>
	<circle style="fill:#700D00;" cx="304.668" cy="376.933" r="8.44"/>
	<circle style="fill:#700D00;" cx="324.833" cy="328.254" r="8.44"/>
	<circle style="fill:#700D00;" cx="304.668" cy="279.586" r="8.44"/>
	<circle style="fill:#700D00;" cx="256" cy="259.421" r="8.44"/>
	<circle style="fill:#700D00;" cx="207.332" cy="279.586" r="8.44"/>
	<circle style="fill:#700D00;" cx="187.167" cy="328.254" r="8.44"/>
	<circle style="fill:#700D00;" cx="207.332" cy="376.933" r="8.44"/>
</g>
<g>
	<path style="fill:#FFFFFF;" d="M392.35,486.681h-33.758c-4.661,0-8.44-3.778-8.44-8.44s3.779-8.44,8.44-8.44h33.758
		c4.661,0,8.44,3.778,8.44,8.44S397.012,486.681,392.35,486.681z"/>
	<path style="fill:#FFFFFF;" d="M324.833,486.681H119.65c-4.661,0-8.44-3.778-8.44-8.44s3.779-8.44,8.44-8.44h205.183
		c4.661,0,8.44,3.778,8.44,8.44S329.495,486.681,324.833,486.681z"/>
</g>
<path style="fill:#51C0C2;" d="M400.858,115.188H111.142c-4.661,0-8.44-3.778-8.44-8.44s3.779-8.44,8.44-8.44h289.716
	c4.661,0,8.44,3.778,8.44,8.44S405.519,115.188,400.858,115.188z"/>
<path style="fill:#FFFFFF;" d="M365.56,153.143H146.44c-4.661,0-8.44-3.778-8.44-8.44s3.779-8.44,8.44-8.44h219.12
	c4.661,0,8.44,3.778,8.44,8.44S370.221,153.143,365.56,153.143z"/>
<g>
</g>
<g>
</g>
<g>
</g>
<g>
</g>
<g>
</g>
<g>
</g>
<g>
</g>
<g>
</g>
<g>
</g>
<g>
</g>
<g>
</g>
<g>
</g>
<g>
</g>
<g>
</g>
<g>
</g>
</svg>
