<?xml version="1.0" encoding="iso-8859-1"?>
<!-- Generator: Adobe Illustrator 19.0.0, SVG Export Plug-In . SVG Version: 6.00 Build 0)  -->
<svg version="1.1" id="Layer_1" xmlns="http://www.w3.org/2000/svg" xmlns:xlink="http://www.w3.org/1999/xlink" x="0px" y="0px"
	 viewBox="0 0 512 512" style="enable-background:new 0 0 512 512;" xml:space="preserve">
<path style="fill:#FF9A52;" d="M511.876,263.877C507.713,401.611,394.746,512,256,512S4.287,401.611,0.124,263.877l94.411-56.264
	l94.973,56.207c3.86,33.297,32.16,59.133,66.492,59.133s62.633-25.836,66.492-59.133l94.996-56.207L511.876,263.877z"/>
<path style="fill:#8E4238;" d="M512,256c0,2.633-0.045,5.266-0.124,7.877c-23.507-0.056-23.552-15.754-47.138-15.754
	c-23.631,0-23.631,15.754-47.25,15.754c-23.642,0-23.642-15.754-47.273-15.754s-23.631,15.754-47.262,15.754l-0.461-0.056
	c0.304-2.566,0.461-5.176,0.461-7.821c0-36.977-29.977-66.954-66.954-66.954S189.046,219.023,189.046,256
	c0,2.644,0.158,5.255,0.461,7.821l-0.461,0.056c-23.631,0-23.631-15.754-47.262-15.754s-23.631,15.754-47.25,15.754
	c-23.642,0-23.642-15.754-47.273-15.754c-23.586,0-23.631,15.698-47.138,15.754C0.045,261.266,0,258.633,0,256
	C0,114.62,114.62,0,256,0S512,114.62,512,256z"/>
<g>
	<path style="fill:#FFFFFF;" d="M87.645,119.524c-1.951,0-3.914-0.673-5.507-2.047c-3.531-3.043-3.925-8.372-0.882-11.902
		C125.219,54.57,188.912,25.319,256,25.319c4.662,0,8.44,3.778,8.44,8.44s-3.778,8.44-8.44,8.44
		c-62.173,0-121.204,27.117-161.96,74.396C92.372,118.531,90.015,119.524,87.645,119.524z"/>
	<path style="fill:#FFFFFF;" d="M37.571,223.382c-0.517,0-1.04-0.047-1.565-0.146c-4.581-0.859-7.599-5.27-6.739-9.851
		c5.306-28.295,15.784-55.068,31.148-79.573c2.477-3.95,7.685-5.143,11.633-2.668c3.95,2.476,5.144,7.683,2.668,11.633
		c-14.234,22.708-23.944,47.51-28.859,73.72C45.094,220.552,41.552,223.382,37.571,223.382z"/>
	<path style="fill:#FFFFFF;" d="M474.429,223.382c-3.981,0-7.525-2.83-8.284-6.884c-4.915-26.21-14.625-51.012-28.859-73.719
		c-2.476-3.949-1.282-9.157,2.668-11.633c3.95-2.473,9.158-1.282,11.633,2.668c15.361,24.504,25.842,51.277,31.148,79.572
		c0.86,4.581-2.158,8.992-6.739,9.851C475.469,223.334,474.946,223.382,474.429,223.382z"/>
</g>
<g>
	<circle style="fill:#DC774E;" cx="388.917" cy="391.562" r="8.44"/>
	<circle style="fill:#DC774E;" cx="355.159" cy="357.804" r="8.44"/>
	<circle style="fill:#DC774E;" cx="129.452" cy="366.243" r="8.44"/>
</g>
<g>
</g>
<g>
</g>
<g>
</g>
<g>
</g>
<g>
</g>
<g>
</g>
<g>
</g>
<g>
</g>
<g>
</g>
<g>
</g>
<g>
</g>
<g>
</g>
<g>
</g>
<g>
</g>
<g>
</g>
</svg>
