<?xml version="1.0" encoding="iso-8859-1"?>
<!-- Generator: Adobe Illustrator 19.0.0, SVG Export Plug-In . SVG Version: 6.00 Build 0)  -->
<svg version="1.1" id="Layer_1" xmlns="http://www.w3.org/2000/svg" xmlns:xlink="http://www.w3.org/1999/xlink" x="0px" y="0px"
	 viewBox="0 0 512 512" style="enable-background:new 0 0 512 512;" xml:space="preserve">
<path style="fill:#74D1D2;" d="M426.119,503.065V512H123.15v-8.935c0-9.284,7.337-18.848,16.305-21.268
	c0,0,62.464-16.8,62.464-42.94l72.715-22.506l72.715,22.506c0,26.14,62.464,42.94,62.464,42.94
	C418.782,484.217,426.119,493.782,426.119,503.065z"/>
<path style="fill:#C8FEFF;" d="M152.632,33.758l23.271,191.297c-24.047,0-46.654,9.362-63.657,26.365s-26.365,39.61-26.365,63.657
	s9.362,46.654,26.365,63.657s39.61,26.365,63.657,26.365h21.909l4.107,33.758H347.35l49.287-405.099H152.632z M175.903,371.341
	c-15.022,0-29.156-5.851-39.778-16.474c-10.634-10.634-16.485-24.756-16.485-39.79s5.851-29.156,16.485-39.79
	c10.623-10.623,24.756-16.474,39.778-16.474h4.107l13.695,112.527H175.903z"/>
<path style="fill:#E8D6BD;" d="M362.631,33.758l-87.996,33.758l-87.996-33.758C186.638,15.112,201.751,0,220.396,0
	c11.106,0,20.964,5.368,27.119,13.65C253.671,5.368,263.517,0,274.635,0c11.106,0,20.964,5.368,27.119,13.65
	C307.909,5.368,317.755,0,328.873,0C347.519,0,362.631,15.112,362.631,33.758z"/>
<path style="fill:#C67741;" d="M362.631,33.758l-40.859,335.737c0,17.498-94.276,17.498-94.276,0L186.638,33.758H362.631z"/>
<g>
</g>
<g>
</g>
<g>
</g>
<g>
</g>
<g>
</g>
<g>
</g>
<g>
</g>
<g>
</g>
<g>
</g>
<g>
</g>
<g>
</g>
<g>
</g>
<g>
</g>
<g>
</g>
<g>
</g>
</svg>
