<?xml version="1.0" encoding="iso-8859-1"?>
<!-- Generator: Adobe Illustrator 19.0.0, SVG Export Plug-In . SVG Version: 6.00 Build 0)  -->
<svg version="1.1" id="Layer_1" xmlns="http://www.w3.org/2000/svg" xmlns:xlink="http://www.w3.org/1999/xlink" x="0px" y="0px"
	 viewBox="0 0 512 512" style="enable-background:new 0 0 512 512;" xml:space="preserve">
<path style="fill:#51C0C2;" d="M422.721,245.276c17.656,25.645,27.389,59.426,27.389,95.119s-9.734,69.474-27.389,95.119
	c-18.995,27.547-44.865,42.727-72.839,42.727l-11.253-16.879l11.253-16.879c16.542,0,32.543-9.992,45.033-28.132
	c13.83-20.052,21.436-47.025,21.436-75.956c0-28.92-7.607-55.904-21.436-75.956c-12.491-18.139-28.492-28.132-45.033-28.132
	l-11.253-16.879l11.253-16.879C377.856,202.549,403.726,217.729,422.721,245.276z"/>
<g>
	<rect x="303.824" y="444.484" style="fill:#296B94;" width="46.057" height="33.758"/>
	<rect x="303.824" y="202.549" style="fill:#296B94;" width="46.057" height="33.758"/>
</g>
<path style="fill:#C8FEFF;" d="M61.89,168.791l22.505,33.758V512h230.681V168.791l-115.341-11.253L84.396,168.791H61.89z"/>
<polygon style="fill:#8E4238;" points="199.736,340.396 281.319,340.396 281.319,478.242 118.154,478.242 118.154,340.396 "/>
<g>
	<path style="fill:#98E1E2;" d="M239.121,436.044h-30.945V146.286c0-4.661-3.779-8.44-8.44-8.44c-4.661,0-8.44,3.779-8.44,8.44
		v289.758h-30.945c-4.661,0-8.44,3.779-8.44,8.44c0,4.661,3.779,8.44,8.44,8.44h78.769c4.661,0,8.44-3.779,8.44-8.44
		C247.56,439.823,243.782,436.044,239.121,436.044z"/>
	<rect x="191.297" y="33.758" style="fill:#98E1E2;" width="16.879" height="67.516"/>
</g>
<path style="fill:#296B94;" d="M199.736,0c12.434,0,22.506,10.071,22.506,22.505s-10.071,22.505-22.506,22.505
	c-12.434,0-22.505-10.071-22.505-22.505S187.302,0,199.736,0z"/>
<path style="fill:#51C0C2;" d="M199.736,78.983c-63.612,0-115.194,40.184-115.341,89.808h230.681
	C314.931,119.167,263.348,78.983,199.736,78.983z"/>
<g>
</g>
<g>
</g>
<g>
</g>
<g>
</g>
<g>
</g>
<g>
</g>
<g>
</g>
<g>
</g>
<g>
</g>
<g>
</g>
<g>
</g>
<g>
</g>
<g>
</g>
<g>
</g>
<g>
</g>
</svg>
