<?xml version="1.0" encoding="iso-8859-1"?>
<!-- Generator: Adobe Illustrator 19.0.0, SVG Export Plug-In . SVG Version: 6.00 Build 0)  -->
<svg version="1.1" id="Layer_1" xmlns="http://www.w3.org/2000/svg" xmlns:xlink="http://www.w3.org/1999/xlink" x="0px" y="0px"
	 viewBox="0 0 512 512" style="enable-background:new 0 0 512 512;" xml:space="preserve">
<path style="fill:#74D1D2;" d="M94.546,236.308l15.743,242.002C111.492,496.843,127.64,512,146.184,512h219.08
	c18.545,0,34.726-15.157,35.964-33.679l16.226-242.013L256,180.044L94.546,236.308z"/>
<polygon style="fill:#98E1E2;" points="55.701,0 74.549,202.549 94.546,236.308 417.454,236.308 437.451,202.549 456.299,0 "/>
<path style="fill:#FFFFFF;" d="M336.075,83.27c-40.037,0-40.037-15.754-80.075-15.754c-40.049,0-40.049,15.754-80.086,15.754
	S135.877,67.516,95.84,67.516l11.568,124.343l19.996,33.758l0.99,10.69L256,258.813l127.606-22.505l0.99-10.69l19.996-33.758
	L416.16,67.516C376.123,67.516,376.123,83.27,336.075,83.27z"/>
<g>
	<path style="fill:#98E1E2;" d="M383.606,236.308l-12.491,134.234c-1.722,18.488-18.297,33.612-36.83,33.612h-29.673l-20.091-94.692
		l25.301-73.154H383.606z"/>
	<path style="fill:#98E1E2;" d="M202.178,236.308l24.776,73.154l-19.566,94.692h-29.673c-18.533,0-35.109-15.124-36.83-33.612
		l-12.491-134.234H202.178z"/>
</g>
<polygon style="fill:#C8FEFF;" points="309.822,236.308 304.612,404.154 207.388,404.154 202.178,236.308 "/>
<g>
</g>
<g>
</g>
<g>
</g>
<g>
</g>
<g>
</g>
<g>
</g>
<g>
</g>
<g>
</g>
<g>
</g>
<g>
</g>
<g>
</g>
<g>
</g>
<g>
</g>
<g>
</g>
<g>
</g>
</svg>
