<?xml version="1.0" encoding="iso-8859-1"?>
<!-- Generator: Adobe Illustrator 19.0.0, SVG Export Plug-In . SVG Version: 6.00 Build 0)  -->
<svg version="1.1" id="Layer_1" xmlns="http://www.w3.org/2000/svg" xmlns:xlink="http://www.w3.org/1999/xlink" x="0px" y="0px"
	 viewBox="0 0 512 512" style="enable-background:new 0 0 512 512;" xml:space="preserve">
<path style="fill:#C8FEFF;" d="M410.725,0l-57.839,478.489C350.658,496.921,333.644,512,315.077,512H196.923
	c-18.567,0-35.581-15.079-37.809-33.511L101.275,0H410.725z"/>
<path style="fill:#8E4238;" d="M372.646,33.758l-47.667,394.263c-9.936,21.932-128.022,21.932-137.959,0L139.354,33.758
	c29.167,0,29.167,11.253,58.323,11.253s29.156-11.253,58.312-11.253c29.167,0,29.167,11.253,58.323,11.253
	C343.479,45.011,343.479,33.758,372.646,33.758z"/>
<path style="fill:#FFFFFF;" d="M296.764,252.904l-23.885-13.79l23.885-13.79c4.036-2.33,5.419-7.492,3.089-11.528
	c-2.332-4.036-7.493-5.42-11.528-3.089l-23.885,13.79v-27.58c0-4.661-3.778-8.44-8.44-8.44c-4.661,0-8.44,3.779-8.44,8.44v27.58
	l-23.885-13.79c-4.037-2.333-9.199-0.947-11.528,3.089c-2.33,4.036-0.947,9.198,3.089,11.528l23.885,13.79l-23.885,13.79
	c-4.036,2.33-5.419,7.492-3.089,11.528c1.563,2.707,4.4,4.221,7.317,4.221c1.431,0,2.883-0.365,4.212-1.132l23.885-13.79v27.58
	c0,4.661,3.779,8.44,8.44,8.44c4.662,0,8.44-3.779,8.44-8.44v-27.58l23.885,13.79c1.33,0.767,2.781,1.132,4.212,1.132
	c2.917,0,5.754-1.515,7.317-4.221C302.184,260.396,300.799,255.235,296.764,252.904z"/>
<g>
</g>
<g>
</g>
<g>
</g>
<g>
</g>
<g>
</g>
<g>
</g>
<g>
</g>
<g>
</g>
<g>
</g>
<g>
</g>
<g>
</g>
<g>
</g>
<g>
</g>
<g>
</g>
<g>
</g>
</svg>
