<?xml version="1.0" encoding="iso-8859-1"?>
<!-- Generator: Adobe Illustrator 19.0.0, SVG Export Plug-In . SVG Version: 6.00 Build 0)  -->
<svg version="1.1" id="Layer_1" xmlns="http://www.w3.org/2000/svg" xmlns:xlink="http://www.w3.org/1999/xlink" x="0px" y="0px"
	 viewBox="0 0 512 512" style="enable-background:new 0 0 512 512;" xml:space="preserve">
<path style="fill:#BD9F79;" d="M492.093,54.866c-8.64-9.654-20.827-14.97-34.315-14.97H347.621v19.948h110.157
	c7.737,0,14.647,2.958,19.452,8.326c4.806,5.369,6.983,12.561,6.128,20.251l-31.091,280.02c-1.853,16.685-14.553,30.78-27.736,30.78
	h-46.545v19.948h46.545c23.255,0,44.592-21.769,47.563-48.526l31.091-280.02C504.672,77.219,500.734,64.52,492.093,54.866z"/>
<path style="fill:#E8D6BD;" d="M394.661,439.123C398.039,479.205,367.904,512,327.676,512H81.65
	c-40.229,0-70.377-32.795-66.986-72.877L45.025,79.792L8.507,0l352.416,39.896l30.361,359.331L394.661,439.123z"/>
<g>
	<path style="fill:#FFFFFF;" d="M341.639,453.569c-5.128,0-9.487-3.931-9.927-9.135L301.648,88.686
		c-0.464-5.488,3.611-10.314,9.099-10.777c5.476-0.477,10.314,3.609,10.779,9.099l30.063,355.75
		c0.464,5.488-3.611,10.314-9.099,10.777C342.205,453.559,341.92,453.569,341.639,453.569z"/>
	<path style="fill:#FFFFFF;" d="M68.059,449.092c-0.282,0-0.567-0.012-0.852-0.036c-5.488-0.464-9.562-5.29-9.099-10.779
		l5.664-67.007c0.465-5.488,5.302-9.571,10.779-9.098c5.488,0.464,9.562,5.29,9.099,10.779l-5.664,67.007
		C77.546,445.161,73.185,449.092,68.059,449.092z"/>
	<path style="fill:#FFFFFF;" d="M77.094,342.19c-0.282,0-0.567-0.012-0.852-0.036c-5.488-0.464-9.562-5.289-9.099-10.777
		l17.96-212.527c0.465-5.49,5.308-9.568,10.779-9.099c5.488,0.464,9.562,5.289,9.099,10.777L87.02,333.055
		C86.581,338.258,82.22,342.19,77.094,342.19z"/>
</g>
<g>
</g>
<g>
</g>
<g>
</g>
<g>
</g>
<g>
</g>
<g>
</g>
<g>
</g>
<g>
</g>
<g>
</g>
<g>
</g>
<g>
</g>
<g>
</g>
<g>
</g>
<g>
</g>
<g>
</g>
</svg>
