<?xml version="1.0" encoding="iso-8859-1"?>
<!-- Generator: Adobe Illustrator 19.0.0, SVG Export Plug-In . SVG Version: 6.00 Build 0)  -->
<svg version="1.1" id="Layer_1" xmlns="http://www.w3.org/2000/svg" xmlns:xlink="http://www.w3.org/1999/xlink" x="0px" y="0px"
	 viewBox="0 0 512 512" style="enable-background:new 0 0 512 512;" xml:space="preserve">
<g>
	<path style="fill:#296B94;" d="M424.209,87.396c-1.603-1.902-3.963-3-6.451-3h-67.516l-22.505,16.879h80.012l-30.864,180.044
		h-9.764c-4.662,0-8.44,3.779-8.44,8.44c0,4.661,3.778,8.44,8.44,8.44h16.879c4.111,0,7.623-2.962,8.319-7.014l33.758-196.923
		C426.497,91.809,425.814,89.296,424.209,87.396z"/>
	<polygon style="fill:#296B94;" points="263.033,0 251.78,45.011 234.901,56.264 218.022,45.011 206.769,0 	"/>
</g>
<polygon style="fill:#3C95AB;" points="251.78,45.011 218.022,45.011 119.56,84.396 234.901,118.154 350.242,84.396 "/>
<g>
	<polygon style="fill:#98E1E2;" points="273.352,84.396 250.846,292.571 305.231,281.319 316.483,281.319 350.242,84.396 	"/>
	<polygon style="fill:#98E1E2;" points="196.45,84.396 85.802,84.396 127.28,129.407 153.319,281.319 164.571,281.319 
		218.956,292.571 	"/>
	<polygon style="fill:#98E1E2;" points="316.483,315.077 305.231,315.077 250.846,303.824 273.352,512 350.242,512 	"/>
	<polygon style="fill:#98E1E2;" points="153.319,315.077 119.56,512 196.45,512 218.956,303.824 164.571,315.077 	"/>
</g>
<g>
	<polygon style="fill:#51C0C2;" points="262.099,315.077 273.352,512 196.45,512 207.703,315.077 234.901,303.824 	"/>
	<polygon style="fill:#51C0C2;" points="196.45,84.396 207.703,281.319 234.901,298.198 262.099,281.319 273.352,84.396 	"/>
</g>
<rect x="164.571" y="281.319" style="fill:#3C95AB;" width="140.659" height="33.758"/>
<g>
</g>
<g>
</g>
<g>
</g>
<g>
</g>
<g>
</g>
<g>
</g>
<g>
</g>
<g>
</g>
<g>
</g>
<g>
</g>
<g>
</g>
<g>
</g>
<g>
</g>
<g>
</g>
<g>
</g>
</svg>
