<?xml version="1.0" encoding="iso-8859-1"?>
<!-- Generator: Adobe Illustrator 19.0.0, SVG Export Plug-In . SVG Version: 6.00 Build 0)  -->
<svg version="1.1" id="Layer_1" xmlns="http://www.w3.org/2000/svg" xmlns:xlink="http://www.w3.org/1999/xlink" x="0px" y="0px"
	 viewBox="0 0 512 512" style="enable-background:new 0 0 512 512;" xml:space="preserve">
<path style="fill:#FF9A52;" d="M477.465,221.465c0-23.766-3.747-46.654-10.668-68.113c-35.131,0-210.809-37.944-210.809-37.944
	S80.333,153.352,45.202,153.352c-6.92,21.459-10.668,44.347-10.668,68.113C15.461,221.465,0,236.927,0,256
	c0,19.073,15.461,34.535,34.535,34.535l221.466,33.758l221.464-33.758C496.539,290.535,512,275.073,512,256
	C512,236.927,496.539,221.465,477.465,221.465z"/>
<path style="fill:#8E4238;" d="M466.798,153.352c-35.131,0-35.131,29.572-70.273,29.572c-35.131,0-35.131-29.572-70.273-29.572
	c-35.131,0-35.131,29.572-70.262,29.572s-35.131-29.572-70.262-29.572s-35.131,29.572-70.262,29.572s-35.131-29.572-70.262-29.572
	C73.942,64.366,157.46,0,256,0S438.058,64.366,466.798,153.352z"/>
<polygon style="fill:#B75548;" points="34.535,290.535 81.312,512 430.688,512 477.465,290.535 "/>
<g>
	<path style="fill:#8E4238;" d="M392.342,486.684c-0.439,0-0.883-0.034-1.331-0.106c-4.605-0.729-7.744-5.052-7.014-9.656
		l24.46-154.312c0.729-4.602,5.049-7.746,9.656-7.014c4.605,0.729,7.744,5.052,7.014,9.656l-24.46,154.312
		C400.009,483.721,396.421,486.684,392.342,486.684z"/>
	<path style="fill:#8E4238;" d="M356.822,392.761c-0.297,0-0.595-0.017-0.898-0.048c-4.635-0.491-7.994-4.645-7.504-9.28
		l6.383-60.355c0.491-4.634,4.633-7.988,9.28-7.504c4.635,0.491,7.994,4.645,7.504,9.28l-6.383,60.355
		C364.747,389.541,361.085,392.761,356.822,392.761z"/>
	<path style="fill:#8E4238;" d="M346.89,486.684c-0.297,0-0.595-0.017-0.898-0.048c-4.635-0.491-7.994-4.645-7.504-9.28
		l6.383-60.354c0.491-4.634,4.636-7.991,9.28-7.504c4.635,0.491,7.994,4.645,7.504,9.28l-6.383,60.354
		C354.814,483.464,351.152,486.684,346.89,486.684z"/>
	<path style="fill:#8E4238;" d="M301.433,486.684c-0.152,0-0.303-0.003-0.453-0.012c-4.655-0.246-8.229-4.22-7.982-8.874
		l8.173-154.245c0.246-4.656,4.245-8.242,8.874-7.982c4.655,0.246,8.229,4.22,7.982,8.874l-8.173,154.245
		C309.615,483.193,305.889,486.684,301.433,486.684z"/>
	<path style="fill:#8E4238;" d="M255.972,486.684c-4.663-0.001-8.441-3.78-8.44-8.441l0.028-154.211
		c0.001-4.661,3.779-8.438,8.44-8.438c4.663,0.001,8.441,3.78,8.44,8.441l-0.028,154.211
		C264.41,482.906,260.632,486.684,255.972,486.684z"/>
	<path style="fill:#8E4238;" d="M210.51,486.684c-4.457,0-8.183-3.493-8.419-7.995l-8.115-154.177
		c-0.245-4.655,3.33-8.626,7.984-8.872c4.689-0.288,8.627,3.33,8.872,7.984l8.115,154.177c0.245,4.655-3.33,8.626-7.984,8.872
		C210.81,486.68,210.659,486.684,210.51,486.684z"/>
	<path style="fill:#8E4238;" d="M165.054,486.686c-4.264,0-7.926-3.221-8.383-7.555l-16.259-154.144
		c-0.49-4.636,2.873-8.791,7.508-9.279c4.645-0.47,8.791,2.873,9.279,7.508l16.258,154.143c0.489,4.636-2.873,8.791-7.508,9.279
		C165.648,486.671,165.349,486.686,165.054,486.686z"/>
	<path style="fill:#8E4238;" d="M119.6,486.686c-4.079,0-7.668-2.964-8.325-7.121L86.871,325.456
		c-0.728-4.604,2.414-8.927,7.016-9.655c4.609-0.728,8.928,2.411,9.655,7.015l24.404,154.109c0.728,4.603-2.414,8.927-7.016,9.656
		C120.482,486.652,120.039,486.686,119.6,486.686z"/>
</g>
<g>
</g>
<g>
</g>
<g>
</g>
<g>
</g>
<g>
</g>
<g>
</g>
<g>
</g>
<g>
</g>
<g>
</g>
<g>
</g>
<g>
</g>
<g>
</g>
<g>
</g>
<g>
</g>
<g>
</g>
</svg>
