<?xml version="1.0" encoding="iso-8859-1"?>
<!-- Generator: Adobe Illustrator 19.0.0, SVG Export Plug-In . SVG Version: 6.00 Build 0)  -->
<svg version="1.1" id="Layer_1" xmlns="http://www.w3.org/2000/svg" xmlns:xlink="http://www.w3.org/1999/xlink" x="0px" y="0px"
	 viewBox="0 0 512.003 512.003" style="enable-background:new 0 0 512.003 512.003;" xml:space="preserve">
<path style="fill:#98E1E2;" d="M50.931,186.413C2.033,137.516-18.01,56.822,19.408,19.403
	C56.822-18.011,137.515,2.032,186.414,50.931c42.088,42.088,49.897,96.684,27.643,134.711l280.117,237.588
	c1.055,0.895,2.085,1.832,3.081,2.829c19.661,19.661,19.661,51.536,0,71.197c-19.661,19.661-51.536,19.661-71.197,0
	c-0.996-0.996-1.933-2.025-2.829-3.081L185.639,214.053C147.612,236.303,93.018,228.5,50.931,186.413z"/>
<path style="fill:#FFFFFF;" d="M461.658,486.67c-6.408,0-12.817-2.44-17.696-7.318c-0.462-0.465-0.937-0.985-1.423-1.556
	c-3.015-3.555-2.578-8.881,0.977-11.895c3.557-3.014,8.882-2.576,11.895,0.977c0.18,0.212,0.347,0.398,0.496,0.55
	c3.165,3.164,8.334,3.165,11.509-0.012c1.534-1.533,2.379-3.579,2.379-5.76c0-2.181-0.845-4.227-2.379-5.759
	c-0.15-0.15-0.333-0.313-0.54-0.489c-3.555-3.016-3.992-8.341-0.977-11.895c3.015-3.554,8.339-3.99,11.895-0.977
	c0.578,0.492,1.102,0.97,1.559,1.426c9.757,9.758,9.757,25.634,0,35.392C474.473,484.231,468.066,486.67,461.658,486.67z"/>
<path style="fill:#51C0C2;" d="M461.071,186.413c48.898-48.899,68.942-129.591,31.523-167.01
	C455.18-18.011,374.487,2.032,325.588,50.931c-42.088,42.088-49.897,96.684-27.643,134.711L17.828,423.23
	c-1.056,0.895-2.085,1.832-3.081,2.829c-19.661,19.661-19.661,51.536,0,71.197c19.661,19.661,51.536,19.661,71.197,0
	c0.996-0.996,1.933-2.025,2.829-3.081l237.592-280.12C364.39,236.303,418.985,228.5,461.071,186.413z"/>
<g>
	<path style="fill:#FFFFFF;" d="M50.344,486.669c-6.408,0-12.816-2.44-17.694-7.317c-9.757-9.757-9.757-25.634,0-35.391
		c0.456-0.456,0.98-0.935,1.559-1.427c3.555-3.013,8.881-2.576,11.895,0.977c3.015,3.555,2.578,8.881-0.977,11.895
		c-0.208,0.176-0.392,0.34-0.541,0.489c-3.176,3.176-3.176,8.344,0,11.519c3.177,3.177,8.345,3.174,11.521,0
		c0.145-0.145,0.311-0.332,0.491-0.544c3.018-3.549,8.344-3.986,11.896-0.967c3.552,3.018,3.986,8.344,0.968,11.896
		c-0.491,0.577-0.965,1.097-1.413,1.544C63.164,484.228,56.753,486.669,50.344,486.669z M385.972,199.619
		c-3.982,0-7.526-2.831-8.285-6.887c-0.859-4.581,2.161-8.991,6.742-9.85c16.499-3.089,32.684-12.187,46.805-26.309
		c3.297-3.295,8.64-3.295,11.936,0c3.296,3.297,3.296,8.64,0,11.936c-16.538,16.537-35.776,27.245-55.632,30.964
		C387.01,199.572,386.487,199.619,385.972,199.619z M327.089,177.032c-2.899,0-5.722-1.495-7.292-4.178
		c-7.979-13.637-10.562-30.82-7.273-48.385c3.719-19.857,14.427-39.095,30.968-55.636c20.261-20.258,48.323-35.678,75.068-41.246
		c16.881-3.512,31.843-2.997,43.263,1.495c4.337,1.706,6.471,6.605,4.764,10.943c-1.706,4.337-6.604,6.47-10.943,4.764
		c-8.235-3.24-20.185-3.482-33.646-0.679c-23.656,4.925-48.543,18.629-66.572,36.657c-14.123,14.123-23.221,30.309-26.311,46.808
		c-2.542,13.571-0.677,26.623,5.251,36.751c2.354,4.023,1,9.193-3.022,11.548C330.005,176.659,328.538,177.032,327.089,177.032z"/>
	<path style="fill:#FFFFFF;" d="M139.236,200.87c-4.844,0-9.789-0.46-14.766-1.392c-19.858-3.72-39.097-14.427-55.636-30.968
		c-20.258-20.258-35.677-48.32-41.246-75.068c-3.514-16.88-2.998-31.841,1.495-43.263c1.707-4.337,6.608-6.469,10.943-4.764
		c4.337,1.706,6.47,6.605,4.764,10.943c-3.239,8.236-3.48,20.185-0.677,33.646c4.925,23.658,18.629,48.545,36.656,66.571
		c14.123,14.124,30.309,23.222,46.808,26.312c13.571,2.542,26.623,0.679,36.754-5.249c4.022-2.354,9.191-1.001,11.546,3.024
		c2.354,4.023,1,9.192-3.024,11.546C163.082,197.924,151.487,200.87,139.236,200.87z M191.17,134.46
		c-3.982,0-7.526-2.831-8.287-6.887c-3.09-16.499-12.187-32.684-26.308-46.805c-3.296-3.296-3.296-8.64,0-11.935
		c3.296-3.297,8.64-3.296,11.935-0.001c16.538,16.538,27.245,35.776,30.964,55.632c0.857,4.581-2.161,8.991-6.743,9.85
		C192.207,134.413,191.684,134.46,191.17,134.46z"/>
</g>
<g>
</g>
<g>
</g>
<g>
</g>
<g>
</g>
<g>
</g>
<g>
</g>
<g>
</g>
<g>
</g>
<g>
</g>
<g>
</g>
<g>
</g>
<g>
</g>
<g>
</g>
<g>
</g>
<g>
</g>
</svg>
