<?xml version="1.0" encoding="iso-8859-1"?>
<!-- Generator: Adobe Illustrator 19.0.0, SVG Export Plug-In . SVG Version: 6.00 Build 0)  -->
<svg version="1.1" id="Layer_1" xmlns="http://www.w3.org/2000/svg" xmlns:xlink="http://www.w3.org/1999/xlink" x="0px" y="0px"
	 viewBox="0 0 512 512" style="enable-background:new 0 0 512 512;" xml:space="preserve">
<polygon style="fill:#98E1E2;" points="396.659,73.143 396.659,438.857 255.989,455.736 115.341,438.857 115.341,73.143 
	255.989,56.264 "/>
<g>
	<polygon style="fill:#51C0C2;" points="396.659,438.857 396.659,512 349.769,489.495 302.879,512 255.989,489.495 209.11,512 
		162.22,489.495 115.341,512 115.341,438.857 	"/>
	<polygon style="fill:#51C0C2;" points="396.659,0 396.659,73.143 115.341,73.143 115.341,0 162.22,22.505 209.11,0 255.989,22.505 
		302.879,0 349.769,22.505 	"/>
	<path style="fill:#51C0C2;" d="M307.513,214.998c-3.456,0-6.698-2.138-7.939-5.576c-4.663-12.916-21.36-20.939-43.574-20.939
		c-6.69,0-12.98,0.738-18.695,2.193c-4.518,1.152-9.111-1.58-10.261-6.096c-1.15-4.517,1.579-9.111,6.096-10.261
		c7.075-1.802,14.766-2.715,22.86-2.715c29.524,0,52.304,12.295,59.451,32.086c1.583,4.384-0.688,9.222-5.072,10.805
		C309.433,214.836,308.465,214.998,307.513,214.998z"/>
	<path style="fill:#51C0C2;" d="M256,340.396c-29.536,0-52.319-12.303-59.457-32.105c-1.581-4.384,0.692-9.221,5.077-10.802
		c4.386-1.58,9.221,0.693,10.802,5.077c4.659,12.923,21.357,20.95,43.579,20.95c20.764,0,45.011-7.74,45.011-29.553
		c0-19.858-14.856-24.471-46.388-29.648c-26.96-4.427-60.513-9.935-60.513-46.279c0-8.963,2.533-17.039,7.53-24.005
		c2.716-3.788,7.989-4.655,11.777-1.94c3.788,2.718,4.656,7.989,1.939,11.777c-2.898,4.041-4.367,8.808-4.367,14.168
		c0,19.839,14.849,24.449,46.369,29.623c26.968,4.428,60.532,9.938,60.532,46.304C317.89,321.735,293.018,340.396,256,340.396z"/>
</g>
<g>
</g>
<g>
</g>
<g>
</g>
<g>
</g>
<g>
</g>
<g>
</g>
<g>
</g>
<g>
</g>
<g>
</g>
<g>
</g>
<g>
</g>
<g>
</g>
<g>
</g>
<g>
</g>
<g>
</g>
</svg>
