<?xml version="1.0" encoding="iso-8859-1"?>
<!-- Generator: Adobe Illustrator 19.0.0, SVG Export Plug-In . SVG Version: 6.00 Build 0)  -->
<svg version="1.1" id="Layer_1" xmlns="http://www.w3.org/2000/svg" xmlns:xlink="http://www.w3.org/1999/xlink" x="0px" y="0px"
	 viewBox="0 0 512 512" style="enable-background:new 0 0 512 512;" xml:space="preserve">
<rect x="174.418" y="123.78" style="fill:#74D1D2;" width="163.165" height="33.758"/>
<rect x="174.418" y="157.538" style="fill:#3C95AB;" width="163.165" height="56.264"/>
<path style="fill:#C8FEFF;" d="M337.582,191.297h-59.077L256,202.549l-22.505-11.253h-59.077c-18.567,0-33.758,15.191-33.758,33.758
	v253.187c0,18.567,15.191,33.758,33.758,33.758h163.165c18.567,0,33.758-15.191,33.758-33.758V225.055
	C371.341,206.488,356.149,191.297,337.582,191.297z"/>
<rect x="233.495" y="191.297" style="fill:#74D1D2;" width="45.011" height="171.604"/>
<rect x="174.418" y="351.648" style="fill:#FFFFFF;" width="163.165" height="126.593"/>
<g>
	<circle style="fill:#74D1D2;" cx="247.56" cy="431.824" r="8.44"/>
	<circle style="fill:#74D1D2;" cx="213.802" cy="398.066" r="8.44"/>
	<polygon style="fill:#74D1D2;" points="233.495,0 233.495,89.122 278.505,89.122 278.505,22.505 	"/>
</g>
<path style="fill:#3C95AB;" d="M278.505,77.869c-7.145-1.204-14.696-1.845-22.505-1.845c-7.809,0-15.36,0.641-22.505,1.845
	c-34.107,5.716-59.077,24.103-59.077,45.911h163.165C337.582,101.972,312.613,83.585,278.505,77.869z"/>
<g>
	<path style="fill:#98E1E2;" d="M343.209,132.22H168.791c-4.661,0-8.44-3.779-8.44-8.44s3.779-8.44,8.44-8.44h174.418
		c4.661,0,8.44,3.779,8.44,8.44S347.87,132.22,343.209,132.22z"/>
	<path style="fill:#98E1E2;" d="M343.209,165.978H168.791c-4.661,0-8.44-3.779-8.44-8.44s3.779-8.44,8.44-8.44h174.418
		c4.661,0,8.44,3.779,8.44,8.44S347.87,165.978,343.209,165.978z"/>
</g>
<g>
</g>
<g>
</g>
<g>
</g>
<g>
</g>
<g>
</g>
<g>
</g>
<g>
</g>
<g>
</g>
<g>
</g>
<g>
</g>
<g>
</g>
<g>
</g>
<g>
</g>
<g>
</g>
<g>
</g>
</svg>
