<?xml version="1.0" encoding="iso-8859-1"?>
<!-- Generator: Adobe Illustrator 19.0.0, SVG Export Plug-In . SVG Version: 6.00 Build 0)  -->
<svg version="1.1" id="Layer_1" xmlns="http://www.w3.org/2000/svg" xmlns:xlink="http://www.w3.org/1999/xlink" x="0px" y="0px"
	 viewBox="0 0 512 512" style="enable-background:new 0 0 512 512;" xml:space="preserve">
<polygon style="fill:#8E4238;" points="213.003,33.758 213.003,82.663 298.997,82.663 298.997,33.758 256,12.941 "/>
<rect x="213.003" y="82.663" style="fill:#DC774E;" width="85.993" height="85.093"/>
<path style="fill:#8E4238;" d="M387.905,328.141c0,4.771-0.259,9.486-0.754,14.133l-15.698,147.343
	C370.148,501.929,358.94,512,346.562,512H165.438c-12.378,0-23.586-10.071-24.891-22.382l-15.698-147.343
	c-0.495-4.647-0.754-9.362-0.754-14.133c0-23.237,6.009-45.056,16.542-64.017l72.366-130.127h85.994
	c0,0,72.366,130.127,72.355,130.127C381.896,283.085,387.905,304.904,387.905,328.141z"/>
<path style="fill:#DC774E;" d="M354.146,328.569c0,0-0.203,6.774-0.563,10.127l-10.195,95.66H168.611l-10.195-95.66
	c-0.36-3.353-0.551-6.763-0.551-10.116l98.698-42.592L354.146,328.569z"/>
<g>
	<path style="fill:#700D00;" d="M298.999,91.1h-85.998c-4.661,0-8.44-3.778-8.44-8.44c0-4.662,3.779-8.44,8.44-8.44h85.998
		c4.661,0,8.44,3.778,8.44,8.44C307.439,87.322,303.66,91.1,298.999,91.1z"/>
	<path style="fill:#700D00;" d="M298.997,0h-85.993v33.758h34.557v7.877c0,4.662,3.779,8.44,8.44,8.44c4.661,0,8.44-3.778,8.44-8.44
		v-7.877h34.557V0z"/>
	<path style="fill:#700D00;" d="M354.146,328.141c0,0.146,0,0.281,0,0.428c-16.26,0-16.26,13.683-32.532,13.683
		c-16.26,0-16.26-13.683-32.52-13.683c-16.271,0-16.271,13.683-32.532,13.683s-16.26-13.683-32.52-13.683
		s-16.26,13.683-32.52,13.683c-16.271,0-16.271-13.683-32.532-13.683l-1.125,0.011c-0.011-0.146-0.011-0.293-0.011-0.439
		c0-54.204,43.942-98.146,98.146-98.146S354.146,273.937,354.146,328.141z"/>
</g>
<g>
</g>
<g>
</g>
<g>
</g>
<g>
</g>
<g>
</g>
<g>
</g>
<g>
</g>
<g>
</g>
<g>
</g>
<g>
</g>
<g>
</g>
<g>
</g>
<g>
</g>
<g>
</g>
<g>
</g>
</svg>
