<?xml version="1.0" encoding="iso-8859-1"?>
<!-- Generator: Adobe Illustrator 19.0.0, SVG Export Plug-In . SVG Version: 6.00 Build 0)  -->
<svg version="1.1" id="Layer_1" xmlns="http://www.w3.org/2000/svg" xmlns:xlink="http://www.w3.org/1999/xlink" x="0px" y="0px"
	 viewBox="0 0 512 512" style="enable-background:new 0 0 512 512;" xml:space="preserve">
<g>
	<rect x="86.804" y="444.484" style="fill:#51C0C2;" width="338.393" height="67.516"/>
	<rect x="86.792" style="fill:#51C0C2;" width="338.415" height="67.516"/>
</g>
<path style="fill:#F7CD95;" d="M425.196,45.011v421.978H86.804L86.792,45.011H425.196z"/>
<g>
	<path style="fill:#FC9851;" d="M86.792,45.011c63.207,133.165,63.207,288.813,0.011,421.978
		C23.597,333.824,23.597,178.176,86.792,45.011z"/>
	<path style="fill:#FC9851;" d="M425.208,45.011c63.195,133.165,63.195,288.813-0.011,421.978
		C362.001,333.824,362.001,178.176,425.208,45.011z"/>
</g>
<path style="fill:#3C95AB;" d="M256,244.747l63.229,74.482c-40.184,12.457-80.581,6.56-106.8-19.659
	c-12.007-12.007-19.76-26.995-23.417-43.571C189.024,256,256,244.747,256,244.747z"/>
<path style="fill:#51C0C2;" d="M192.771,192.771l42.972,20.467L256,256h-66.976C184.658,236.386,186.019,214.545,192.771,192.771z"
	/>
<path style="fill:#296B94;" d="M299.571,212.429c26.219,26.219,32.115,66.616,19.659,106.8L256,256v-66.976
	C272.575,192.67,287.564,200.423,299.571,212.429z"/>
<path style="fill:#3C95AB;" d="M192.771,192.771c21.774-6.752,43.616-8.113,63.229-3.758c0,0.011,0,66.988,0,66.988L192.771,192.771
	z"/>
<g>
</g>
<g>
</g>
<g>
</g>
<g>
</g>
<g>
</g>
<g>
</g>
<g>
</g>
<g>
</g>
<g>
</g>
<g>
</g>
<g>
</g>
<g>
</g>
<g>
</g>
<g>
</g>
<g>
</g>
</svg>
