<?xml version="1.0" encoding="iso-8859-1"?>
<!-- Generator: Adobe Illustrator 19.0.0, SVG Export Plug-In . SVG Version: 6.00 Build 0)  -->
<svg version="1.1" id="Layer_1" xmlns="http://www.w3.org/2000/svg" xmlns:xlink="http://www.w3.org/1999/xlink" x="0px" y="0px"
	 viewBox="0 0 512 512" style="enable-background:new 0 0 512 512;" xml:space="preserve">
<g>
	<path style="fill:#98E1E2;" d="M492.936,418.043l-6.405,22.419c-2.473,8.639-11.841,15.709-20.829,15.709H46.298
		c-8.987,0-18.356-7.07-20.829-15.709l-6.405-22.419H492.936z"/>
	<path style="fill:#98E1E2;" d="M283.234,268.255l-29.957,10.894v59.915h59.915v-59.915L283.234,268.255z M283.234,221.957h136.17
		c0,90.243-73.162,163.404-163.404,163.404c-44.315,0-84.513-17.648-113.947-46.298h-33.117
		c-55.557,0-100.766-45.208-100.766-100.766v-16.34H283.234z M108.936,306.383h7.135c-9.499-15.709-16.428-33.16-20.208-51.745
		h-53.03C50.165,284.313,77.029,306.383,108.936,306.383z"/>
</g>
<g>
	<path style="fill:#F9EBDB;" d="M217.872,197.447c-4.512,0-8.17-3.657-8.17-8.17c0-12.443,3.386-18.932,6.374-24.658
		c2.525-4.839,4.52-8.663,4.52-17.098c0-8.436-1.995-12.26-4.52-17.101c-2.987-5.726-6.374-12.216-6.374-24.66
		c0-12.443,3.386-18.933,6.374-24.659c2.525-4.841,4.52-8.665,4.52-17.102c0-4.513,3.658-8.17,8.17-8.17
		c4.512,0,8.17,3.657,8.17,8.17c0,12.444-3.386,18.934-6.374,24.66c-2.525,4.841-4.52,8.665-4.52,17.101
		c0,8.437,1.995,12.261,4.52,17.102c2.987,5.726,6.374,12.216,6.374,24.659s-3.386,18.932-6.374,24.658
		c-2.525,4.839-4.52,8.663-4.52,17.098C226.043,193.79,222.384,197.447,217.872,197.447z"/>
	<path style="fill:#F9EBDB;" d="M283.234,197.447c-4.512,0-8.17-3.657-8.17-8.17c0-12.443,3.386-18.932,6.374-24.658
		c2.525-4.839,4.52-8.663,4.52-17.098c0-8.436-1.995-12.26-4.52-17.101c-2.987-5.726-6.374-12.216-6.374-24.66
		c0-12.443,3.386-18.933,6.374-24.659c2.525-4.841,4.52-8.665,4.52-17.102c0-4.513,3.658-8.17,8.17-8.17
		c4.512,0,8.17,3.657,8.17,8.17c0,12.444-3.386,18.934-6.374,24.66c-2.525,4.841-4.52,8.665-4.52,17.101
		c0,8.437,1.995,12.261,4.52,17.102c2.987,5.726,6.374,12.216,6.374,24.659s-3.386,18.932-6.374,24.658
		c-2.525,4.839-4.52,8.663-4.52,17.098C291.404,193.79,287.746,197.447,283.234,197.447z"/>
	<path style="fill:#F9EBDB;" d="M283.234,213.787c-4.512,0-8.17,3.657-8.17,8.17v68.085h16.34v-68.085
		C291.404,217.444,287.746,213.787,283.234,213.787z"/>
</g>
<path style="fill:#51C0C2;" d="M503.83,426.213H8.17c-4.512,0-8.17-3.657-8.17-8.17c0-4.513,3.658-8.17,8.17-8.17h495.66
	c4.512,0,8.17,3.657,8.17,8.17C512,422.556,508.342,426.213,503.83,426.213z"/>
<polygon style="fill:#EF5352;" points="313.191,279.149 313.191,339.064 253.277,339.064 253.277,279.149 283.234,268.255 "/>
<g>
</g>
<g>
</g>
<g>
</g>
<g>
</g>
<g>
</g>
<g>
</g>
<g>
</g>
<g>
</g>
<g>
</g>
<g>
</g>
<g>
</g>
<g>
</g>
<g>
</g>
<g>
</g>
<g>
</g>
</svg>
