<?xml version="1.0" encoding="iso-8859-1"?>
<!-- Generator: Adobe Illustrator 19.0.0, SVG Export Plug-In . SVG Version: 6.00 Build 0)  -->
<svg version="1.1" id="Layer_1" xmlns="http://www.w3.org/2000/svg" xmlns:xlink="http://www.w3.org/1999/xlink" x="0px" y="0px"
	 viewBox="0 0 512 512" style="enable-background:new 0 0 512 512;" xml:space="preserve">
<path style="fill:#3C95AB;" d="M265.691,61.522l62.204,73.274c-39.532,12.255-79.274,6.454-105.068-19.34
	c-11.812-11.812-19.439-26.558-23.037-42.864C199.801,72.592,265.691,61.522,265.691,61.522z"/>
<path style="fill:#51C0C2;" d="M203.487,10.389l42.275,20.135l19.929,42.069h-65.89C195.505,53.297,196.845,31.81,203.487,10.389z"
	/>
<path style="fill:#296B94;" d="M308.555,29.728c25.794,25.794,31.595,65.536,19.34,105.068l-62.204-62.204V6.702
	C281.997,10.289,296.743,17.916,308.555,29.728z"/>
<path style="fill:#3C95AB;" d="M203.487,10.389c21.421-6.642,42.908-7.982,62.204-3.697c0,0.011,0,65.901,0,65.901L203.487,10.389z"
	/>
<path style="fill:#F9EBDB;" d="M492.627,469.029l-6.509,22.783c-2.513,8.779-12.033,15.963-21.166,15.963H66.422
	c-9.133,0-18.653-7.185-21.166-15.963l-6.509-22.783H492.627z"/>
<path style="fill:#C8FEFF;" d="M442.811,174.172v88.562c0,97.828-79.307,177.124-177.124,177.124
	c-50.658,0-96.333-21.266-128.614-55.351h-48.51c-23.657,0-45.897-9.21-62.625-25.938S0,319.602,0,295.945
	c0-23.657,9.21-45.897,25.938-62.625s38.967-25.938,62.625-25.938v-33.211L442.811,174.172L442.811,174.172z M88.562,351.296h23.701
	c-15.078-26.048-23.701-56.303-23.701-88.562v-22.141c-14.79,0-28.683,5.757-39.144,16.207
	c-10.45,10.461-16.207,24.355-16.207,39.144c0,14.79,5.757,28.683,16.218,39.144C59.879,345.54,73.772,351.296,88.562,351.296z"/>
<path style="fill:#51C0C2;" d="M409.6,207.383v55.351c0,79.352-64.562,143.914-143.914,143.914s-143.914-64.562-143.914-143.914
	v-55.351c35.978,0,35.978,15.498,71.957,15.498s35.978-15.498,71.946-15.498c35.989,0,35.989,15.498,71.968,15.498
	S373.622,207.383,409.6,207.383z"/>
<path style="fill:#E8D6BD;" d="M503.697,477.332H27.676c-4.586,0-8.303-3.716-8.303-8.303s3.716-8.303,8.303-8.303h476.022
	c4.586,0,8.303,3.716,8.303,8.303S508.284,477.332,503.697,477.332z"/>
<g>
</g>
<g>
</g>
<g>
</g>
<g>
</g>
<g>
</g>
<g>
</g>
<g>
</g>
<g>
</g>
<g>
</g>
<g>
</g>
<g>
</g>
<g>
</g>
<g>
</g>
<g>
</g>
<g>
</g>
</svg>
